<svg version="1.1" id="scanQr" fill="#000" xmlns="http://www.w3.org/2000/svg" x="0px" y="0px" viewBox="0 0 50 50" style=""><g><g><rect x="0" y="22.8" width="50" height="5.2"></rect></g><g><g><path d="M30.5,4.7H39c3.6,0,6.6,2.9,6.6,6.6v8.5h3.9V8.6c0-4.3-3.5-7.8-7.8-7.8H30.5V4.7z"></path></g><g><path d="M4.4,19.8v-8.5c0-3.6,2.9-6.6,6.6-6.6h8.5V0.8H8.2c-4.3,0-7.8,3.5-7.8,7.8v11.2H4.4z"></path></g><g><path d="M19.4,46h-8.5c-3.6,0-6.6-2.9-6.6-6.6v-8.5H0.4v11.2c0,4.3,3.5,7.8,7.8,7.8h11.2V46z"></path></g><g><path d="M45.6,30.9v8.5c0,3.6-2.9,6.6-6.6,6.6h-8.5v3.9h11.2c4.3,0,7.8-3.5,7.8-7.8V30.9H45.6z"></path></g></g></g></svg>