<svg width="255" height="128" viewBox="0 0 255 128" fill="none" xmlns="http://www.w3.org/2000/svg">
<g clip-path="url(#clip0_217_9)">
<path d="M93.6592 89.46H101.309V98.73L93.6592 89.46Z" fill="#F28021"/>
<path d="M108.96 98.73H101.31V89.46L108.96 98.73Z" fill="#F7AC1C"/>
<path d="M108.96 98.73H116.61V89.46L108.96 98.73Z" fill="#F7AC1C"/>
<path d="M124.259 89.46H116.609V98.73L124.259 89.46Z" fill="#F28021"/>
<path d="M93.6592 117.14H101.309V107.88L93.6592 117.14Z" fill="#0084C7"/>
<path d="M108.96 107.88H101.31V117.14L108.96 107.88Z" fill="#0AB5E3"/>
<path d="M101.31 107.88H108.96V98.6196L101.31 107.88Z" fill="#5C9E43"/>
<path d="M116.61 107.88H108.96V98.6196L116.61 107.88Z" fill="#8BC441"/>
<path d="M108.96 107.88H116.61V117.14L108.96 107.88Z" fill="#0AB5E3"/>
<path d="M124.259 117.14H116.609V107.88L124.259 117.14Z" fill="#0084C7"/>
<path d="M24.7396 113.18C23.351 114.611 21.678 115.736 19.8282 116.482C17.9784 117.228 15.9929 117.578 13.9996 117.51C12.0952 117.553 10.2023 117.205 8.43768 116.487C6.67304 115.77 5.07411 114.699 3.73957 113.34C2.15312 111.789 1.07251 109.795 0.639574 107.62C0.137031 104.496 -0.0772047 101.333 -0.000426471 98.1697C-0.0771406 95.0034 0.137092 91.8368 0.639574 88.7097C1.06417 86.534 2.1462 84.5409 3.73957 82.9997C5.07326 81.6387 6.6718 80.5656 8.43649 79.8467C10.2012 79.1277 12.0945 78.7782 13.9996 78.8197C22.6496 78.8197 27.2996 84.3797 28.3196 91.0097H20.8396C19.9296 87.3197 17.6896 85.4497 13.9996 85.4497C13.1081 85.4141 12.2197 85.5747 11.3971 85.9203C10.5746 86.2659 9.83805 86.788 9.23957 87.4497C7.84957 89.2097 7.42957 90.5997 7.42957 98.1397C7.42957 105.68 7.74957 107.14 9.23957 108.88C9.82901 109.553 10.564 110.083 11.3888 110.429C12.2135 110.776 13.1064 110.93 13.9996 110.88C14.9825 110.925 15.9636 110.758 16.8764 110.39C17.7891 110.023 18.6122 109.463 19.2896 108.75C20.4642 107.324 21.0729 105.516 20.9996 103.67V102.23H13.9996V95.9997H28.3696V101.56C28.3696 107.11 27.3696 110.37 24.7396 113.15" fill="white"/>
<path d="M46.2897 117.19V114.79C45.4225 115.718 44.3573 116.44 43.1732 116.9C41.989 117.361 40.7164 117.548 39.4497 117.45C36.2897 117.45 33.9897 116.66 32.3397 115C30.7906 113.29 29.966 111.046 30.0397 108.74C30.0397 104.31 33.0897 100.68 39.5497 100.68H46.1197V99.2898C46.1197 96.2398 44.6297 94.9098 40.9397 94.9098C38.2697 94.9098 37.0397 95.5498 35.5997 97.1998L31.1597 92.8798C33.8897 89.8798 36.5597 89.0298 41.2097 89.0298C49.0097 89.0298 53.0697 92.3398 53.0697 98.8598V117.19H46.2897ZM46.1197 105.43H40.6197C38.1097 105.43 36.7197 106.61 36.7197 108.59C36.7197 110.57 37.9997 111.79 40.7197 111.79C42.6397 111.79 43.8697 111.63 45.0997 110.46C45.8497 109.76 46.0997 108.64 46.0997 106.93L46.1197 105.43Z" fill="white"/>
<path d="M63.8095 117.19C58.0895 117.19 55.6895 113.19 55.6895 109.19V79.1499H62.6295V108.8C62.6295 110.46 63.3295 111.31 65.0895 111.31H67.7595V117.19H63.8095Z" fill="white"/>
<path d="M85.6696 117.19V114.79C84.8024 115.718 83.7372 116.44 82.553 116.9C81.3689 117.361 80.0963 117.548 78.8296 117.45C75.6696 117.45 73.3796 116.66 71.7196 115C70.1705 113.29 69.3459 111.046 69.4196 108.74C69.4196 104.31 72.4196 100.68 78.9296 100.68H85.4996V99.2898C85.4996 96.2398 84.0096 94.9098 80.3196 94.9098C77.6496 94.9098 76.4196 95.5498 74.9796 97.1998L70.5496 92.8798C73.2696 89.8798 75.9396 89.0298 80.5496 89.0298C88.3496 89.0298 92.4096 92.3398 92.4096 98.8598V117.19H85.6696ZM85.4996 105.43H79.9996C77.4896 105.43 76.0996 106.61 76.0996 108.59C76.0996 110.57 77.3796 111.79 80.0996 111.79C82.0196 111.79 83.2496 111.63 84.4796 110.46C85.2296 109.76 85.4796 108.64 85.4796 106.93L85.4996 105.43Z" fill="white"/>
<path d="M198.54 117.19C192.83 117.19 190.42 113.19 190.42 109.19V79.1499H197.42V108.8C197.42 110.46 198.11 111.31 199.88 111.31H202.54V117.19H198.54Z" fill="white"/>
<path d="M221 117.19V114.79C220.132 115.718 219.067 116.44 217.883 116.9C216.699 117.361 215.426 117.548 214.16 117.45C211 117.45 208.71 116.66 207.05 115C205.501 113.29 204.676 111.046 204.75 108.74C204.75 104.31 207.8 100.68 214.26 100.68H220.84V99.2898C220.84 96.2398 219.34 94.9098 215.65 94.9098C212.98 94.9098 211.75 95.5498 210.31 97.1998L205.88 92.8798C208.6 89.8798 211.27 89.0298 215.88 89.0298C223.68 89.0298 227.74 92.3398 227.74 98.8598V117.19H221ZM220.84 105.43H215.3C212.79 105.43 211.4 106.61 211.4 108.59C211.4 110.57 212.69 111.79 215.4 111.79C217.32 111.79 218.55 111.63 219.78 110.46C220.53 109.76 220.78 108.64 220.78 106.93L220.84 105.43Z" fill="white"/>
<path d="M139.269 121.68C138.84 123.009 138.131 124.229 137.189 125.26C136.387 126.006 135.441 126.58 134.41 126.948C133.378 127.316 132.282 127.47 131.189 127.4H128.459V121.14H130.059C132.059 121.14 132.839 120.66 133.539 118.63L134.709 115.21L125.199 89.3501H132.519L138.289 106.55L143.849 89.3501H151.169L139.269 121.68Z" fill="white"/>
<path d="M242.809 121.68C242.373 123.005 241.665 124.225 240.729 125.26C239.927 126.005 238.981 126.579 237.949 126.947C236.918 127.315 235.822 127.469 234.729 127.4H231.999V121.14H233.599C235.599 121.14 236.379 120.66 237.069 118.63L238.249 115.21L228.739 89.3501H236.059L241.829 106.55L247.389 89.3501H254.709L242.809 121.68Z" fill="white"/>
<path d="M181.589 80.0701C179.642 79.0595 177.472 78.554 175.279 78.6001H159.909V116.94H167.129V102.07H175.279C177.47 102.118 179.639 101.62 181.589 100.62C183.369 99.6912 184.841 98.2673 185.829 96.5201C186.815 94.6145 187.329 92.5004 187.329 90.3551C187.329 88.2097 186.815 86.0956 185.829 84.1901C184.842 82.4372 183.37 81.0066 181.589 80.0701ZM179.289 92.8401C178.941 93.5347 178.404 94.117 177.739 94.5201C177.047 94.9217 176.259 95.1257 175.459 95.1101H167.129V85.5601H175.459C176.27 85.5418 177.07 85.7496 177.769 86.1601C178.431 86.5604 178.962 87.1439 179.299 87.8401C179.672 88.627 179.856 89.4896 179.839 90.3601C179.857 91.2189 179.669 92.0694 179.289 92.8401Z" fill="white"/>
<path d="M151.739 21.2399C148.513 18.2496 145.103 15.4641 141.529 12.8999L141.729 13.1199C143.729 14.5499 146.879 20.1199 143.439 32.0399C142.509 35.2899 140.089 39.7999 136.809 44.3599C132.239 50.6999 126.009 57.1099 119.739 60.2899C124.588 60.3343 129.409 59.5601 133.999 57.9999C145.999 53.9999 157.359 43.4499 159.559 36.8299C160.999 32.5099 157.999 27.1399 151.739 21.2399Z" fill="white"/>
<path d="M141.73 13.1197C141.58 12.9897 141.44 12.8497 141.28 12.7297C141.12 12.6097 140.91 12.4597 140.71 12.3297L140.61 12.2797C140.142 11.9825 139.646 11.7313 139.13 11.5297C138.58 11.3022 138.011 11.1248 137.43 10.9997C136.656 10.8505 135.868 10.7868 135.08 10.8097C134.68 10.8097 134.27 10.8097 133.86 10.8997C133.008 10.9976 132.168 11.1751 131.35 11.4297H131.28C127.93 12.7029 124.87 14.6342 122.28 17.1097L122.03 17.3597C121.58 17.8097 121.14 18.2897 120.71 18.7797L120.32 19.2397C119.043 20.8199 117.909 22.5098 116.93 24.2897C121.4 17.5797 129.51 14.7797 135.51 17.2897C142.71 20.3397 143.44 33.0497 136.83 44.2897C140.11 39.7297 142.53 35.2197 143.46 31.9697C146.88 20.0697 143.69 14.5497 141.73 13.1197Z" fill="url(#paint0_linear_217_9)"/>
<path d="M128.869 5.32987C122.479 1.99987 115.789 -0.0901347 110.549 -0.000134666C106.549 0.199865 101.929 2.61986 99.1695 10.4399C96.8195 17.1299 95.6295 27.2399 97.9295 38.6899C100.109 49.5699 105.399 61.4499 106.229 63.1799C108.229 49.5699 111.979 33.7999 116.229 25.6299L116.949 24.2999C117.928 22.5199 119.063 20.83 120.339 19.2499L120.729 18.7899C121.159 18.2899 121.599 17.7899 122.049 17.3699L122.299 17.1199C124.89 14.6443 127.95 12.713 131.299 11.4399H131.369C132.188 11.1852 133.028 11.0078 133.879 10.9099C134.289 10.8599 134.699 10.8299 135.099 10.8199C135.887 10.7969 136.675 10.8606 137.449 11.0099C138.031 11.1349 138.6 11.3123 139.149 11.5399C139.666 11.7414 140.162 11.9926 140.629 12.2899C136.529 9.59987 131.939 6.90987 128.869 5.32987Z" fill="white"/>
</g>
<defs>
<linearGradient id="paint0_linear_217_9" x1="125.26" y1="27.1997" x2="146.66" y2="27.9497" gradientUnits="userSpaceOnUse">
<stop offset="0.04" stop-color="#F7E11C"/>
<stop offset="0.21" stop-color="#F5BC21"/>
<stop offset="0.4" stop-color="#F08121"/>
<stop offset="0.61" stop-color="#EF5325"/>
<stop offset="0.85" stop-color="#E92926"/>
<stop offset="1" stop-color="#C43D3F"/>
</linearGradient>
<clipPath id="clip0_217_9">
<rect width="254.73" height="127.4" fill="white"/>
</clipPath>
</defs>
</svg>
